<?xml version="1.0" encoding="UTF-8" standalone="no"?>
<!DOCTYPE svg PUBLIC "-//W3C//DTD SVG 1.1//EN"
 "http://www.w3.org/Graphics/SVG/1.1/DTD/svg11.dtd">
<!-- Generated by graphviz version 2.40.1 (20161225.0304)
 -->
<!-- Title: Tree Pages: 1 -->
<svg width="240pt" height="165pt"
 viewBox="0.00 0.00 240.00 165.00" xmlns="http://www.w3.org/2000/svg" xmlns:xlink="http://www.w3.org/1999/xlink">
<g id="graph0" class="graph" transform="scale(1 1) rotate(0) translate(4 161)">
<title>Tree</title>
<polygon fill="#ffffff" stroke="transparent" points="-4,4 -4,-161 236,-161 236,4 -4,4"/>
<!-- 0 -->
<g id="node1" class="node">
<title>0</title>
<polygon fill="none" stroke="#000000" points="173.5,-157 57.5,-157 57.5,-89 173.5,-89 173.5,-157"/>
<text text-anchor="middle" x="115.5" y="-141.8" font-family="Helvetica,sans-Serif" font-size="14.00" fill="#000000">X[8] &lt;= 1.5</text>
<text text-anchor="middle" x="115.5" y="-126.8" font-family="Helvetica,sans-Serif" font-size="14.00" fill="#000000">gini = 0.481</text>
<text text-anchor="middle" x="115.5" y="-111.8" font-family="Helvetica,sans-Serif" font-size="14.00" fill="#000000">samples = 72</text>
<text text-anchor="middle" x="115.5" y="-96.8" font-family="Helvetica,sans-Serif" font-size="14.00" fill="#000000">value = [29, 43]</text>
</g>
<!-- 1 -->
<g id="node2" class="node">
<title>1</title>
<polygon fill="none" stroke="#000000" points="107,-53 0,-53 0,0 107,0 107,-53"/>
<text text-anchor="middle" x="53.5" y="-37.8" font-family="Helvetica,sans-Serif" font-size="14.00" fill="#000000">gini = 0.0</text>
<text text-anchor="middle" x="53.5" y="-22.8" font-family="Helvetica,sans-Serif" font-size="14.00" fill="#000000">samples = 29</text>
<text text-anchor="middle" x="53.5" y="-7.8" font-family="Helvetica,sans-Serif" font-size="14.00" fill="#000000">value = [29, 0]</text>
</g>
<!-- 0&#45;&gt;1 -->
<g id="edge1" class="edge">
<title>0&#45;&gt;1</title>
<path fill="none" stroke="#000000" d="M93.6411,-88.9777C87.9932,-80.187 81.9007,-70.7044 76.2104,-61.8477"/>
<polygon fill="#000000" stroke="#000000" points="79.0356,-59.7698 70.6856,-53.2485 73.1463,-63.5536 79.0356,-59.7698"/>
<text text-anchor="middle" x="65.3684" y="-73.9765" font-family="Helvetica,sans-Serif" font-size="14.00" fill="#000000">True</text>
</g>
<!-- 2 -->
<g id="node3" class="node">
<title>2</title>
<polygon fill="none" stroke="#000000" points="232,-53 125,-53 125,0 232,0 232,-53"/>
<text text-anchor="middle" x="178.5" y="-37.8" font-family="Helvetica,sans-Serif" font-size="14.00" fill="#000000">gini = 0.0</text>
<text text-anchor="middle" x="178.5" y="-22.8" font-family="Helvetica,sans-Serif" font-size="14.00" fill="#000000">samples = 43</text>
<text text-anchor="middle" x="178.5" y="-7.8" font-family="Helvetica,sans-Serif" font-size="14.00" fill="#000000">value = [0, 43]</text>
</g>
<!-- 0&#45;&gt;2 -->
<g id="edge2" class="edge">
<title>0&#45;&gt;2</title>
<path fill="none" stroke="#000000" d="M137.7114,-88.9777C143.4504,-80.187 149.6412,-70.7044 155.4233,-61.8477"/>
<polygon fill="#000000" stroke="#000000" points="158.5013,-63.5354 161.0373,-53.2485 152.6398,-59.7087 158.5013,-63.5354"/>
<text text-anchor="middle" x="166.1759" y="-74.0147" font-family="Helvetica,sans-Serif" font-size="14.00" fill="#000000">False</text>
</g>
</g>
</svg>
